<?xml version="1.0" encoding="UTF-8"?>
<svg xmlns="http://www.w3.org/2000/svg" width="282" height="163" viewBox="0 0 282 163" fill="none">
  <g clip-path="url(#clip0_142_1070)">
    <path d="M0 117.448V114.071H5.35127V117.06C5.35127 117.638 5.54113 117.828 6.11775 117.828H13.234C13.8106 117.828 14.0005 117.638 14.0005 117.06V113.839C14.0005 112.993 13.6911 112.767 12.6996 112.535L5.58332 110.998C2.22208 110.272 0.0773508 108.925 0.0773508 105.479V101.341C0.0773508 97.6965 1.80016 95.9766 5.42862 95.9766H13.6911C17.3266 95.9766 19.0424 97.7036 19.0424 101.341V104.407H13.6911V101.721C13.6911 101.143 13.5012 100.953 12.9246 100.953H6.3498C5.77318 100.953 5.58332 101.143 5.58332 101.721V104.633C5.58332 105.479 5.89273 105.704 6.88422 105.937L14.0005 107.473C17.3688 108.199 19.5065 109.546 19.5065 112.993V117.441C19.5065 121.085 17.7837 122.805 14.1552 122.805H5.35127C1.71578 122.805 0 121.078 0 117.441V117.448Z" fill="#1A5632"></path>
    <path d="M23.6641 117.448V101.349C23.6641 97.7043 25.3869 95.9844 29.0153 95.9844H38.8459C42.4814 95.9844 44.1972 97.7114 44.1972 101.349V117.448C44.1972 121.093 42.4744 122.813 38.8459 122.813H29.0153C25.3798 122.813 23.6641 121.086 23.6641 117.448ZM37.9247 117.752C38.5014 117.752 38.6912 117.561 38.6912 116.983V101.8C38.6912 101.222 38.5014 101.031 37.9247 101.031H29.9295C29.3529 101.031 29.163 101.222 29.163 101.8V116.983C29.163 117.561 29.3529 117.752 29.9295 117.752H37.9247Z" fill="#1A5632"></path>
    <path d="M48.6719 117.448V95.9766H54.1778V116.982C54.1778 117.56 54.3677 117.751 54.9443 117.751H62.4403C63.0169 117.751 63.2068 117.56 63.2068 116.982V95.9766H68.7128V117.448C68.7128 121.092 66.99 122.812 63.3615 122.812H54.0302C50.3947 122.812 48.6789 121.085 48.6789 117.448H48.6719Z" fill="#1A5632"></path>
    <path d="M79.7796 100.96H72.5156V95.9766H92.5565V100.96H85.2855V122.812H79.7796V100.96Z" fill="#1A5632"></path>
    <path d="M96.4531 95.9766H101.959V106.557H111.445V95.9766H116.951V122.812H111.445V111.618H101.959V122.812H96.4531V95.9766Z" fill="#1A5632"></path>
    <path d="M121.906 95.9766H139.922V101.038H127.412V106.599H137.552V111.583H127.412V117.751H139.922V122.812H121.906V95.9766Z" fill="#1A5632"></path>
    <path d="M158.966 116.99H149.789L148.144 122.82H142.328L150.471 95.9844H158.501L166.644 122.82H160.604L158.959 116.99H158.966ZM157.552 111.929L154.381 100.658L151.209 111.929H157.559H157.552Z" fill="#1A5632"></path>
    <path d="M169.5 117.448V114.071H174.851V117.06C174.851 117.638 175.041 117.828 175.618 117.828H182.734C183.311 117.828 183.5 117.638 183.5 117.06V113.839C183.5 112.993 183.191 112.767 182.2 112.535L175.083 110.998C171.722 110.272 169.577 108.925 169.577 105.479V101.341C169.577 97.6965 171.3 95.9766 174.929 95.9766H183.191C186.827 95.9766 188.542 97.7036 188.542 101.341V104.407H183.191V101.721C183.191 101.143 183.001 100.953 182.425 100.953H175.85C175.273 100.953 175.083 101.143 175.083 101.721V104.633C175.083 105.479 175.393 105.704 176.384 105.937L183.5 107.473C186.869 108.199 189.006 109.546 189.006 112.993V117.441C189.006 121.085 187.284 122.805 183.655 122.805H174.858C171.223 122.805 169.507 121.078 169.507 117.441L169.5 117.448Z" fill="#1A5632"></path>
    <path d="M198.795 100.96H191.531V95.9766H211.565V100.96H204.301V122.812H198.795V100.96Z" fill="#1A5632"></path>
    <path d="M214.703 95.9766H232.719V101.038H220.209V106.599H230.342V111.583H220.209V117.751H232.719V122.812H214.703V95.9766Z" fill="#1A5632"></path>
    <path d="M257.339 122.812H251.411L246.974 113.345H242.537V122.812H237.031V95.9766H251.144C254.78 95.9766 256.496 97.7036 256.496 101.341V107.819C256.496 110.85 255.307 112.57 252.79 113.035L257.339 122.812ZM250.223 108.439C250.8 108.439 250.99 108.249 250.99 107.671V101.729C250.99 101.15 250.8 100.96 250.223 100.96H242.537V108.439H250.223Z" fill="#1A5632"></path>
    <path d="M260.781 95.9766H266.519L276.652 113.268V95.9766H282.003V122.812H276.652L266.133 104.915V122.812H260.781V95.9766Z" fill="#1A5632"></path>
    <path d="M0.015625 130.852H2.5893V143.533H9.36101V145.894H0.015625V130.852Z" fill="#1A5632"></path>
    <path d="M14.1875 142.892V133.869C14.1875 131.825 15.1509 130.859 17.1901 130.859H22.4429C24.4822 130.859 25.4456 131.825 25.4456 133.869V142.892C25.4456 144.936 24.4822 145.902 22.4429 145.902H17.1901C15.1509 145.902 14.1875 144.936 14.1875 142.892ZM22.0773 143.533C22.6539 143.533 22.8719 143.315 22.8719 142.737V134.01C22.8719 133.432 22.6539 133.214 22.0773 133.214H17.5769C16.9792 133.214 16.7612 133.425 16.7612 134.01V142.737C16.7612 143.315 16.9721 143.533 17.5769 143.533H22.0773Z" fill="#1A5632"></path>
    <path d="M30.7344 142.892V130.859H33.308V142.744C33.308 143.322 33.519 143.54 34.1237 143.54H38.371C38.9476 143.54 39.1656 143.322 39.1656 142.744V130.859H41.7393V142.892C41.7393 144.936 40.7759 145.902 38.7367 145.902H33.744C31.7048 145.902 30.7414 144.936 30.7414 142.892H30.7344Z" fill="#1A5632"></path>
    <path d="M50.2065 130.852H47.6328V145.894H50.2065V130.852Z" fill="#1A5632"></path>
    <path d="M55.882 142.892V141.13H58.4135V142.786C58.4135 143.385 58.6315 143.604 59.2081 143.604H63.2796C63.8562 143.604 64.0742 143.385 64.0742 142.786V140.982C64.0742 140.298 63.7929 140.079 63.0897 139.931L59.0183 139.029C57.2181 138.62 55.9313 137.979 55.9313 135.935V133.869C55.9313 131.825 56.8946 130.859 58.9339 130.859H63.4132C65.4524 130.859 66.4158 131.825 66.4158 133.869V135.483H63.9054V133.982C63.9054 133.383 63.6945 133.164 63.0897 133.164H59.3136C58.7159 133.164 58.4979 133.376 58.4979 133.982V135.575C58.4979 136.259 58.7792 136.477 59.5035 136.647L63.5538 137.528C65.3751 137.937 66.6408 138.578 66.6408 140.622V142.899C66.6408 144.943 65.6775 145.909 63.6382 145.909H58.8776C56.8384 145.909 55.875 144.943 55.875 142.899L55.882 142.892Z" fill="#1A5632"></path>
    <path d="M74.9409 130.852H72.3672V145.894H74.9409V130.852Z" fill="#1A5632"></path>
    <path d="M89.1759 142.222H83.6207L82.4815 145.894H79.7812L84.6473 130.852H88.2477L93.1137 145.894H90.308L89.1688 142.222H89.1759ZM88.4445 139.86L86.3842 133.178L84.3239 139.86H88.4375H88.4445Z" fill="#1A5632"></path>
    <path d="M97.5781 130.852H100.278L106.713 141.552V130.852H109.195V145.894H106.67L100.067 134.898V145.894H97.5781V130.852Z" fill="#1A5632"></path>
    <path d="M123.457 142.222H117.902L116.763 145.894H114.062L118.929 130.852H122.529L127.395 145.894H124.589L123.45 142.222H123.457ZM122.726 139.86L120.665 133.178L118.605 139.86H122.719H122.726Z" fill="#1A5632"></path>
    <path d="M140.32 142.892V130.859H142.894V142.744C142.894 143.322 143.105 143.54 143.71 143.54H147.957C148.534 143.54 148.752 143.322 148.752 142.744V130.859H151.325V142.892C151.325 144.936 150.362 145.902 148.323 145.902H143.33C141.291 145.902 140.327 144.936 140.327 142.892H140.32Z" fill="#1A5632"></path>
    <path d="M157.234 130.852H159.935L166.362 141.552V130.852H168.851V145.894H166.32L159.717 134.898V145.894H157.234V130.852Z" fill="#1A5632"></path>
    <path d="M177.425 130.852H174.852V145.894H177.425V130.852Z" fill="#1A5632"></path>
    <path d="M182.695 130.852H185.501L189.038 143.06L192.596 130.852H195.318L190.494 145.894H187.519L182.695 130.852Z" fill="#1A5632"></path>
    <path d="M200.203 130.852H210.083V133.22H202.777V137.041H208.803V139.367H202.777V143.533H210.083V145.894H200.203V130.852Z" fill="#1A5632"></path>
    <path d="M226.44 145.894H223.655L220.892 140.283H217.847V145.894H215.273V130.852H222.966C225.006 130.852 225.969 131.817 225.969 133.861V137.217C225.969 139.021 225.217 139.987 223.634 140.184L226.44 145.901V145.894ZM222.601 137.985C223.177 137.985 223.395 137.767 223.395 137.167V133.988C223.395 133.41 223.177 133.192 222.601 133.192H217.84V137.985H222.601Z" fill="#1A5632"></path>
    <path d="M231.077 142.892V141.13H233.609V142.786C233.609 143.385 233.827 143.604 234.403 143.604H238.475C239.052 143.604 239.27 143.385 239.27 142.786V140.982C239.27 140.298 238.988 140.079 238.285 139.931L234.214 139.029C232.413 138.62 231.127 137.979 231.127 135.935V133.869C231.127 131.825 232.09 130.859 234.129 130.859H238.609C240.648 130.859 241.611 131.825 241.611 133.869V135.483H239.101V133.982C239.101 133.383 238.89 133.164 238.285 133.164H234.509C233.911 133.164 233.693 133.376 233.693 133.982V135.575C233.693 136.259 233.974 136.477 234.699 136.647L238.749 137.528C240.57 137.937 241.836 138.578 241.836 140.622V142.899C241.836 144.943 240.873 145.909 238.834 145.909H234.073C232.034 145.909 231.07 144.943 231.07 142.899L231.077 142.892Z" fill="#1A5632"></path>
    <path d="M249.706 130.852H247.133V145.894H249.706V130.852Z" fill="#1A5632"></path>
    <path d="M258.862 133.199H254.594V130.852H265.676V133.199H261.429V145.894H258.862V133.199Z" fill="#1A5632"></path>
    <path d="M274.386 140.699L269.352 130.852H272.136L275.694 138.034L279.252 130.852H282.002L276.96 140.699V145.894H274.386V140.699Z" fill="#1A5632"></path>
    <path d="M251.365 160.945H30.6484V163.004H251.365V160.945Z" fill="#FFC629"></path>
    <path d="M91.8203 0L99.8507 10.7567C100.624 11.7929 101.053 13.0758 101.053 14.3728V58.0058C101.053 67.9237 106.981 76.1216 116.151 78.8989C122.529 80.8303 133.112 81.1898 137.907 87.2167L139.918 89.7402L141.93 87.2167C146.725 81.1969 157.315 80.8233 163.686 78.8989C172.856 76.1287 178.784 67.9237 178.784 58.0058V14.3728C178.784 13.0758 179.213 11.7929 179.986 10.7567L188.017 0H91.8273L91.8203 0Z" fill="white"></path>
    <path d="M182.883 2.57031L177.925 9.20338C176.814 10.6907 176.21 12.5023 176.21 14.3632V57.9962C176.21 66.6735 171.231 73.9128 162.94 76.4222C156.668 78.3184 145.396 78.7202 139.918 85.5999C134.44 78.7131 123.168 78.3184 116.896 76.4222C108.605 73.9128 103.626 66.6805 103.626 57.9962V14.3703C103.626 12.5093 103.029 10.6978 101.911 9.21043L96.9531 2.57736H182.876L182.883 2.57031Z" fill="#1A5632"></path>
    <path d="M118.353 71.5817C119.682 71.9835 121.44 72.343 123.297 72.7166C128.479 73.7669 134.871 75.0709 139.913 78.7082C144.962 75.0709 151.354 73.7739 156.53 72.7166C158.386 72.3359 160.144 71.9835 161.473 71.5817C167.443 69.7772 171.156 64.575 171.156 58.0054V14.3724C171.156 12.018 171.775 9.68482 172.928 7.64062H106.898C108.052 9.68482 108.67 12.018 108.67 14.3724V58.0054C108.67 64.575 112.376 69.7772 118.353 71.5817ZM169.419 9.99498C169.018 11.4118 168.807 12.885 168.807 14.3653V57.9983C168.807 63.567 165.812 67.8034 160.805 69.319C159.588 69.6855 157.88 70.038 156.072 70.4045C151.115 71.4125 145.089 72.639 139.92 75.8674C134.752 72.639 128.725 71.4125 123.768 70.4045C121.961 70.038 120.259 69.6926 119.035 69.319C114.022 67.8034 111.033 63.5741 111.033 57.9983V14.3724C111.033 12.8921 110.822 11.4189 110.421 10.002H169.419V9.99498Z" fill="#FFC629"></path>
    <path d="M147.477 28.4743C147.477 27.6002 147.119 27.3112 146.05 27.3112H133.357C132.288 27.3112 131.93 27.6002 131.93 28.4743V32.9081C131.93 34.191 132.499 34.5999 134.356 34.8889L148.047 37.2221C154.319 38.2724 158.314 40.3729 158.314 45.6174V52.3773C158.314 57.9178 155.107 60.54 148.328 60.54H131.501C124.729 60.54 121.516 57.9178 121.516 52.3773V47.8519L131.501 49.6282V51.7923C131.501 52.6663 131.86 52.9553 132.928 52.9553H146.619C147.688 52.9553 148.047 52.6663 148.047 51.7923V46.8932C148.047 45.6103 147.477 45.2015 145.621 44.9125L131.93 42.5793C125.657 41.529 121.663 39.4284 121.663 34.184V27.8893C121.663 22.3488 124.87 19.7266 131.649 19.7266H147.477C154.249 19.7266 157.463 22.3488 157.463 27.8893V32.0693L147.477 30.4128V28.4743Z" fill="white"></path>
  </g>
  <defs>
    <clipPath id="clip0_142_1070">
      <rect width="282" height="163" fill="white"></rect>
    </clipPath>
  </defs>
</svg>
